<?xml version="1.0" encoding="utf-8"?>
<!-- Generator: Adobe Illustrator 23.0.1, SVG Export Plug-In . SVG Version: 6.00 Build 0)  -->
<svg version="1.1" baseProfile="tiny" id="Layer_1" xmlns="http://www.w3.org/2000/svg" xmlns:xlink="http://www.w3.org/1999/xlink"
	 x="0px" y="0px" viewBox="0 0 1005.88 1024" xml:space="preserve">
<circle fill="#2D2D2D" cx="504.2" cy="483.26" r="405.74"/>
<g>
	<polygon fill="#EAEAEA" points="219.24,362.72 172.63,362.72 172.63,600.59 323.71,600.59 323.71,562.01 219.24,562.01 	"/>
	<path fill="#EAEAEA" d="M463.54,560.73c-11.25,4.82-21.86,7.71-34.07,7.71c-25.07,0-38.57-12.21-38.57-36.32V427.01h-45v108.97
		c0,46.29,24.43,67.82,65.57,67.82c18,0,37.93-4.18,56.57-11.57c10.93,6.43,24.43,9.97,40.5,9.97V427.01h-45V560.73z"/>
	<path fill="#EAEAEA" d="M703.66,427.01h-49.82c-9.97,17.04-20.89,34.71-32.47,52.39c-11.57-17.68-22.5-35.36-32.47-52.39h-49.82
		c16.39,26.68,35.68,55.61,56.89,83.25c-22.5,30.22-43.71,59.47-60.75,90.32h49.82c10.93-20.25,23.14-40.18,36.32-59.79
		c13.5,19.61,25.39,39.54,36.64,59.79h49.82c-17.36-30.86-38.25-60.11-61.07-90.65C667.98,482.62,687.27,453.69,703.66,427.01z"/>
	<path fill="#EAEAEA" d="M775.67,435.69c-11.25-6.75-24.75-10.29-41.14-10.29v175.18h45V473.94c14.47-4.82,32.79-7.71,56.25-7.71
		V423.8C813.28,423.8,794.31,427.33,775.67,435.69z"/>
</g>
<path fill="#EAEAEA" d="M706.94,222.47c-41.65,0-75.41,33.76-75.41,75.41s33.76,75.41,75.41,75.41s75.41-33.76,75.41-75.41
	S748.59,222.47,706.94,222.47z M739.03,359.17l-4.61,8.25l-3.74-8.67l-9.27-1.83l7.09-6.24l-1.12-9.38l8.13,4.82l8.57-3.96
	l-2.07,9.22l6.42,6.93L739.03,359.17z"/>
</svg>
